<svg clip-rule="evenodd" fill-rule="evenodd" image-rendering="optimizeQuality" shape-rendering="geometricPrecision" text-rendering="geometricPrecision" viewBox="0 0 1707 1707" xmlns="http://www.w3.org/2000/svg"><g id="Layer_x0020_1"><g id="_514829440"><path d="m699 1442c-5 0-9-1-13-4-9-7-10-20-3-29 34-40 53-93 53-150 0-45-12-89-36-126-5-9-3-22 7-28 9-6 21-3 27 7 2 2 3 5 5 7h224l3-6c6-9 18-12 27-7 10 6 13 18 8 28-21 35-32 77-32 119 0 59 20 115 58 156 7 8 6 21-2 28-4 4-9 5-13 5-6 0-11-2-15-6l-1-1h-282c-4 5-10 7-15 7z" fill="#f7a738" style="fill: rgb(255, 170, 51);"></path><path d="m665 1103h371v57c0 32-26 58-58 58h-256c-31 0-57-26-57-58z" fill="#ef5350" style="fill: rgb(174, 0, 255);"></path><path d="m1278 906c190-3 344-159 344-349v-88c0-75-61-136-135-136h-174c-25 0-46 21-46 47s21 46 46 46h174c23 0 42 19 42 43v88c0 139-113 254-252 256-26 0-46 21-46 47 0 25 21 46 47 46zm-850 0c25 0 46-21 46-46 1-25-20-47-46-47-138-3-250-118-250-256v-88c0-24 19-43 42-43h172c25 0 46-20 46-46s-21-47-46-47h-172c-75 0-135 61-135 136v88c0 189 153 345 341 349z" fill="#f7a738" style="fill: rgb(255, 170, 51);"></path><path d="m853 1163c-266 0-481-216-481-481v-366h961v366c0 265-215 481-480 481z" fill="#fec93e"></path><path d="m1124 1554h-543c-11 0-20-9-20-20v-112c0-11 9-20 20-20h543c11 0 20 9 20 20v112c0 11-9 20-20 20z" fill="#9e7256" style="fill: rgb(255, 98, 0);"></path><path d="m853 939-125 69c-16 9-36 8-51-3s-22-30-19-48l27-139-104-98c-13-12-18-32-12-49 5-18 21-30 39-33l141-17 60-129c8-17 25-27 44-27 18 0 35 10 43 27l60 129 141 17c19 3 34 15 40 33 5 17 0 37-13 49l-104 98 27 139c3 18-4 37-19 48-8 6-18 9-28 9-8 0-16-2-23-6z" fill="#feb538"></path><path d="m1000 985c-3 0-6-1-9-3l-138-76-139 76c-6 4-14 3-20-1-5-4-8-11-7-18l30-156-116-108c-5-5-7-12-5-19 3-7 9-12 16-13l157-19 67-144c3-6 9-10 17-10 7 0 13 4 16 10l67 144 158 19c7 1 12 6 15 13 2 7 0 14-5 19l-116 108 30 156c1 7-1 14-7 18-3 2-7 4-11 4z" fill="#ef5350" style="fill: rgb(174, 0, 255);"></path><path d="m372 316h961v-68c0-37-30-68-67-68h-826c-38 0-68 31-68 68z" fill="#f5a437"></path><path d="m853 0c85 0 154 69 154 154 0 9-1 18-3 26h-303c-2-8-2-17-2-26 0-85 68-154 154-154z" fill="#ea9632" style="fill: rgb(255, 234, 0);"></path><path d="m1186 1707h-667c-11 0-20-9-20-20v-153c0-11 9-20 20-20h667c11 0 20 9 20 20v153c0 11-9 20-20 20z" fill="#73543e" style="fill: rgb(255, 106, 0);"></path><path d="m422 682c0 237 193 431 431 431" fill="none"></path><path d="m405 682c0-9 8-17 17-17s16 8 16 17c0 114 47 217 122 293 75 75 178 121 293 121 9 0 16 7 16 17 0 9-7 16-16 16-124 0-236-50-317-131s-131-193-131-316z" fill="#fee8ab"></path></g></g></svg>