<svg id="Layer_1" enable-background="new 0 0 511.5 511.5" viewBox="0 0 511.5 511.5" xmlns="http://www.w3.org/2000/svg"><g><path d="m159.5 383.75v-32h-104l-32 32h-16v32l32 32h144v-40z" fill="#fee95d" style="fill: rgb(255, 149, 0);"></path><path d="m159.5 383.75v-32h-18v40l24 24v32h18v-40z" fill="#ffc277"></path><g><path d="m55.5 376.25h16v15h-16z" fill="#fff"></path></g><path d="m503.5 447.75h-248v-16l32-32v-32l16-16h168l32 32z" fill="#fee95d" style="fill: rgb(255, 149, 0);"></path><path d="m471.5 351.75h-26l40 40v56h18v-64z" fill="#ffc277"></path><g><g><path d="m359.5 392.25h16v15h-16z" fill="#fff"></path></g><g><path d="m391.5 392.25h16v15h-16z" fill="#fff"></path></g></g><path d="m303.5 159.75h80c8.837 0 16-7.163 16-16 0-8.837-7.163-16-16-16h-80" fill="#d7fc7e" style="fill: rgb(163, 71, 255);"></path><path d="m383.5 143.75h-80v16h80c8.836 0 16-7.164 16-16 0-2.918-.793-5.645-2.158-8-2.768 4.778-7.923 8-13.842 8z" fill="#55e072" style="fill: rgb(182, 134, 254);"></path><path d="m156.471 194.778 67.029-67.029 24.001 23.999-67.029 67.029c-6.627 6.627-17.373 6.627-24 0-6.629-6.627-6.629-17.372-.001-23.999z" fill="#d7fc7e" style="fill: rgb(163, 71, 255);"></path><path d="m180.471 218.778 7.52-7.52-24-24-7.52 7.52c-3.32 3.32-4.97 7.66-4.97 12s1.65 8.68 4.97 12c6.629 6.629 17.37 6.629 24 0z" fill="#ffdecf"></path><path d="m223.5 127.75h80v88h-80z" fill="#d7fc7e" style="fill: rgb(163, 71, 255);"></path><path d="m285.5 143.75h18v72h-18z" fill="#55e072" style="fill: rgb(182, 134, 254);"></path><g><g><path d="m271.502 160.25h16v15h-16z" fill="#fff"></path></g></g><path d="m223.5 215.75-32 32h-32v40h56l40-40h8l40 40v32h40v-56l-48-48" fill="#787680"></path><g><path d="m295.5 215.75h-22l52 52v52h18v-56z" fill="#57565c"></path></g><circle cx="263.5" cy="95.75" fill="#ffdecf" r="32"></circle><path d="m263.5 63.75c-2.762 0-5.443.35-8 1.008 13.802 3.552 24 16.081 24 30.992s-10.198 27.439-24 30.992c2.557.658 5.238 1.008 8 1.008 17.673 0 32-14.327 32-32s-14.327-32-32-32z" fill="#ffcdbe"></path><path d="m399.5 143.75c0-8.837-7.163-16-16-16h-12v32h12c8.837 0 16-7.163 16-16z" fill="#ffdecf"></path><path d="m371.5 143.75h12c5.919 0 11.074-3.222 13.842-8 1.364 2.355 2.158 5.082 2.158 8 0 8.836-7.164 16-16 16h-12z" fill="#ffcdbe"></path><path d="m127.5 303.75v-56h32v40c0 8.837-7.163 16-16 16z" fill="#fff"></path><path d="m359.5 351.75h-56v-32h40c8.837 0 16 7.163 16 16z" fill="#fff"></path><path d="m343.5 319.75h-18c8.836 0 16 7.164 16 16v16h18v-16c0-8.836-7.164-16-16-16z" fill="#cad8eb"></path><g><path d="m167 344.25h-114.606l-32 32h-20.394v42.606l36.394 36.394h154.606v-50.606l-24-24zm9 66.606v29.394h-133.394l-17-17h77.894v-15h-88.5v-17h11.606l32-32h93.394v17h-64.5v15h68.894z" fill="#000000"></path><path d="m511.5 408.25h-.5v-27.606l-36.394-36.394h-107.606v-8.5c0-10.335-6.71-19.127-16-22.266v-52.841l-40-40.001v-53.392h72.5c12.958 0 23.5-10.542 23.5-23.5s-10.542-23.5-23.5-23.5h-80v15h60.5v17h-68v56h-65l-.001-50.607-43.009 43.007-13.393-13.393 54.206-54.204-10.607-10.607-67.029 67.027c-4.622 4.622-7.167 10.768-7.167 17.304 0 6.537 2.546 12.682 7.167 17.303 4.622 4.622 10.767 7.168 17.304 7.168 6.536 0 12.682-2.545 17.304-7.167l30.225-30.226v18.788l-27.606 27.607h-68.394v71h23.5c10.336 0 19.128-6.71 22.266-16h52.841l40-40h1.787l35.606 35.606v57.787l-16 16v32l-32 32v26.606h263v-32h.5zm-132.5-273h4.5c4.687 0 8.5 3.813 8.5 8.5s-3.813 8.5-8.5 8.5h-4.5zm-210.529 80.998c-2.53 0-4.908-.985-6.697-2.774-1.788-1.788-2.773-4.166-2.773-6.696 0-2.529.985-4.908 2.773-6.696l2.213-2.213 13.393 13.394-2.212 2.212c-1.789 1.788-4.168 2.773-6.697 2.773zm183.529 128.002h-41v-17h32.5c4.687 0 8.5 3.813 8.5 8.5zm-200-56.5c0 4.687-3.813 8.5-8.5 8.5h-8.5v-41h17zm114.606-47.5h-14.213l-40 40h-45.393v-25h27.606l32.001-32h65.785l43.608 43.606v45.394h-25v-27.606zm229.394 200h-233v-5.394l27.606-27.606h52.894v-15h-48.5v-21.394l11.606-11.606h161.787l27.607 27.606v21.394h-64.5v15h64.5z" fill="#000000"></path><path d="m263.5 135.25c21.78 0 39.5-17.72 39.5-39.5s-17.72-39.5-39.5-39.5-39.5 17.72-39.5 39.5 17.72 39.5 39.5 39.5zm0-64c13.51 0 24.5 10.99 24.5 24.5s-10.99 24.5-24.5 24.5-24.5-10.99-24.5-24.5 10.99-24.5 24.5-24.5z" fill="#000000"></path></g></g></svg>