<svg viewBox="-8 0 464 464" xmlns="http://www.w3.org/2000/svg"><path d="m168 96c17.671875 0 32-14.328125 32-32v-24h-32l-16-8-8 8h-8v24c0 17.671875 14.328125 32 32 32zm0 0" fill="#ffdaaa"></path><path d="m168 240h-48v176h96v-176zm0 0" fill="#1e81ce" style="fill: rgb(255, 123, 0);"></path><path d="m120 416h-48v48h192v-48zm0 0" fill="#787680"></path><path d="m152 32 16 8h40v-8c0-17.671875-14.328125-32-32-32h-16c-17.671875 0-32 14.328125-32 32v8h16zm0 0" fill="#787680"></path><path d="m192 112-24 56v72h56v-96h112v-32zm0 0" fill="#5aaae7" style="fill: rgb(153, 51, 255);"></path><path d="m168 168-24-56h-80v-80h-32v96c0 8.835938 7.164062 16 16 16h64v96h56zm0 0" fill="#3d9ae2" style="fill: rgb(153, 51, 255);"></path><path d="m192 112h-48l24 56zm0 0" fill="#ffdaaa"></path><path d="m32 0h32v32h-32zm0 0" fill="#ffdaaa"></path><path d="m336 144h32v-32h-32zm0 0" fill="#ffdaaa"></path><path d="m352 8v64h96l-24-32 24-32zm0 0" fill="#ff5023" style="fill: rgb(255, 123, 0);"></path><path d="m192 152h16v16h-16zm0 0" fill="#1e81ce" style="fill: rgb(255, 123, 0);"></path><path d="m160 288h16v128h-16zm0 0" fill="#1a6fb0" style="fill: rgb(0, 0, 0);"></path><g fill="#ff9811"><path d="m272 8h16v16h-16zm0 0" fill="#ff9811"></path><path d="m288 24h16v16h-16zm0 0" fill="#ff9811"></path><path d="m272 40h16v16h-16zm0 0" fill="#ff9811"></path><path d="m256 24h16v16h-16zm0 0" fill="#ff9811"></path><path d="m408 280h16v16h-16zm0 0" fill="#ff9811"></path><path d="m424 296h16v16h-16zm0 0" fill="#ff9811"></path><path d="m408 312h16v16h-16zm0 0" fill="#ff9811"></path><path d="m392 296h16v16h-16zm0 0" fill="#ff9811"></path><path d="m16 200h16v16h-16zm0 0" fill="#ff9811"></path><path d="m0 216h16v16h-16zm0 0" fill="#ff9811"></path><path d="m16 232h16v16h-16zm0 0" fill="#ff9811"></path><path d="m32 216h16v16h-16zm0 0" fill="#ff9811"></path></g><path d="m344 8h16v104h-16zm0 0" fill="#57565c"></path><path d="m344 144h16v272h-16zm0 0" fill="#57565c"></path></svg>