<svg id="Capa_1" enable-background="new 0 0 512 512" viewBox="0 0 512 512" xmlns="http://www.w3.org/2000/svg"><g><g id="Step_by_step_1_"><path d="m435 27.895-21.211 21.21 15 15h-128.789v90h-120v60h-120v60h-60v30h90v-60h120v-60h120v-90h98.789l-15 15 21.211 21.211 51.211-51.211z" fill="#a9f"></path></g><path d="m413.789 49.105 15 15h-128.789v90h-45v30h75v-90h98.789l-15 15 21.211 21.211 51.211-51.211-51.211-51.21z" fill="#8080ff" style="fill: rgb(255, 136, 0);"></path></g><g><path d="m512 484.105h-512v-150h120v-60h120v-60h120v-60h152z" fill="#ecf2ff" style="fill: rgb(255, 136, 0);"></path></g><path d="m360 214.105h-105v270h257v-330h-152z" fill="#d9e5ff" style="fill: rgb(184, 154, 254);"></path></svg>