<!-- icon666.com - MILLIONS vector ICONS FREE --><svg viewBox="0 0 32 32" xmlns="http://www.w3.org/2000/svg"><g id="Layer_2" data-name="Layer 2"><path d="m27.421 9.093a1 1 0 0 0 -1.128.2l-2.9 2.9a3 3 0 0 1 -4.426-.2l-2.2-2.635a1.037 1.037 0 0 0 -1.538 0l-2.194 2.642a3 3 0 0 1 -4.426.2l-2.9-2.9a1 1 0 0 0 -1.7.79l1 12a1 1 0 0 0 .991.91h20a1 1 0 0 0 1-.917l1-12a1 1 0 0 0 -.579-.99z" fill="#ffa859"></path><g fill="#ff5454"><circle cx="16" cy="8" r="2"></circle><circle cx="27" cy="8" r="2"></circle><circle cx="5" cy="8" r="2"></circle><path d="m25.5 22h-19a2.5 2.5 0 0 0 0 5h19a2.5 2.5 0 0 0 0-5z"></path></g><path d="m17 19h-2a1 1 0 0 1 0-2h2a1 1 0 0 1 0 2z" fill="#d96f3b"></path></g></svg>